<svg xmlns="http://www.w3.org/2000/svg" width="166" height="48" viewBox="0 0 166 48" fill="none"><path d="M65.4244 4.81818H61.5803V23H65.4244V4.81818ZM83.2948 4.81818H79.4685V16.2528H79.3087L71.4607 4.81818H68.0871V23H71.9312V11.5565H72.0644L79.9745 23H83.2948V4.81818ZM102.013 11.1836C101.507 6.98438 98.3288 4.5696 94.1207 4.5696C89.3178 4.5696 85.6513 7.96094 85.6513 13.9091C85.6513 19.8395 89.2557 23.2486 94.1207 23.2486C98.7816 23.2486 101.596 20.1502 102.013 16.8033L98.1246 16.7855C97.7607 18.7298 96.2337 19.8484 94.1829 19.8484C91.4219 19.8484 89.5487 17.7976 89.5487 13.9091C89.5487 10.1271 91.3952 7.96982 94.2095 7.96982C96.3136 7.96982 97.8317 9.18608 98.1246 11.1836H102.013ZM104.27 23H115.909V19.8306H108.114V4.81818H104.27V23ZM121.798 4.81818H117.954V23H121.798V4.81818ZM139.669 4.81818H135.843V16.2528H135.683L127.835 4.81818H124.461V23H128.305V11.5565H128.438L136.349 23H139.669V4.81818ZM146.189 4.81818H142.345V23H146.189V4.81818ZM164.894 11.1836C164.388 6.98438 161.21 4.5696 157.002 4.5696C152.199 4.5696 148.532 7.96094 148.532 13.9091C148.532 19.8395 152.137 23.2486 157.002 23.2486C161.662 23.2486 164.477 20.1502 164.894 16.8033L161.006 16.7855C160.642 18.7298 159.115 19.8484 157.064 19.8484C154.303 19.8484 152.43 17.7976 152.43 13.9091C152.43 10.1271 154.276 7.96982 157.09 7.96982C159.194 7.96982 160.713 9.18608 161.006 11.1836H164.894Z" fill="#191414"></path><path opacity="0.7" d="M109.959 42H113.304C115.332 42 116.249 40.9901 116.249 39.652C116.249 38.3011 115.303 37.5384 114.438 37.4915V37.4062C115.239 37.2017 115.908 36.6562 115.908 35.5653C115.908 34.2741 115.013 33.2727 113.155 33.2727H109.959V42ZM111.276 40.8707V38.0753H113.223C114.28 38.0753 114.94 38.7571 114.94 39.5881C114.94 40.321 114.442 40.8707 113.176 40.8707H111.276ZM111.276 37.0483V34.3935H113.074C114.118 34.3935 114.616 34.9432 114.616 35.6676C114.616 36.5114 113.926 37.0483 113.04 37.0483H111.276ZM126.391 37.6364C126.391 34.8452 124.721 33.1534 122.462 33.1534C120.195 33.1534 118.529 34.8452 118.529 37.6364C118.529 40.4233 120.195 42.1193 122.462 42.1193C124.721 42.1193 126.391 40.4276 126.391 37.6364ZM125.087 37.6364C125.087 39.7628 123.962 40.9176 122.462 40.9176C120.958 40.9176 119.837 39.7628 119.837 37.6364C119.837 35.5099 120.958 34.3551 122.462 34.3551C123.962 34.3551 125.087 35.5099 125.087 37.6364ZM133.793 35.5653H135.063C135.025 34.1676 133.789 33.1534 132.016 33.1534C130.265 33.1534 128.922 34.1548 128.922 35.6591C128.922 36.8736 129.792 37.5852 131.194 37.9645L132.225 38.2457C133.158 38.4929 133.878 38.7997 133.878 39.5753C133.878 40.4276 133.064 40.9901 131.944 40.9901C130.929 40.9901 130.086 40.5384 130.009 39.5881H128.688C128.773 41.169 129.996 42.1449 131.952 42.1449C134.002 42.1449 135.182 41.0668 135.182 39.5881C135.182 38.0156 133.78 37.4062 132.672 37.1335L131.82 36.9119C131.138 36.7372 130.23 36.4176 130.235 35.5824C130.235 34.8409 130.912 34.2912 131.986 34.2912C132.988 34.2912 133.699 34.7599 133.793 35.5653ZM137.325 34.4062H140.044V42H141.357V34.4062H144.08V33.2727H137.325V34.4062ZM153.79 37.6364C153.79 34.8452 152.119 33.1534 149.861 33.1534C147.594 33.1534 145.928 34.8452 145.928 37.6364C145.928 40.4233 147.594 42.1193 149.861 42.1193C152.119 42.1193 153.79 40.4276 153.79 37.6364ZM152.486 37.6364C152.486 39.7628 151.361 40.9176 149.861 40.9176C148.357 40.9176 147.236 39.7628 147.236 37.6364C147.236 35.5099 148.357 34.3551 149.861 34.3551C151.361 34.3551 152.486 35.5099 152.486 37.6364ZM163.475 33.2727H162.172V39.6818H162.091L157.65 33.2727H156.431V42H157.748V35.5994H157.829L162.265 42H163.475V33.2727Z" fill="#4F4F4F"></path><rect width="48" height="48" rx="4" fill="#EC4949"></rect><path opacity="0.3" fill-rule="evenodd" clip-rule="evenodd" d="M18.1878 0C22.518 5.79185 25.2624 14.3951 25.2624 23.9999C25.2624 33.6048 22.518 42.2081 18.1876 48H4C1.79086 48 0 46.2091 0 44V4C0 1.79086 1.79086 0 4 0H18.1878Z" fill="white"></path><path fill-rule="evenodd" clip-rule="evenodd" d="M27.7902 11.3684H20.2113V20.2106H11.3674V27.7896H20.2113V36.6316H27.7902V27.7896H36.6306V20.2106H27.7902V11.3684Z" fill="white"></path><path opacity="0.4" d="M62 37.7407H79.7527L84.8065 31L90.871 45L93.3979 37.7407H103" stroke="#4F4F4F" stroke-linecap="round" stroke-linejoin="round"></path></svg>